<svg xmlns="http://www.w3.org/2000/svg" xmlns:xlink="http://www.w3.org/1999/xlink" viewBox="0 0 119.09 155.46"><defs><style>.cls-1{fill:#fff;}.cls-2,.cls-3,.cls-4{fill:none;stroke-miterlimit:10;stroke-width:4px;}.cls-2{stroke:url(#Gradiente_sem_nome_12);}.cls-3{stroke-dasharray:7.8 7.8;stroke:url(#Gradiente_sem_nome_12-2);}.cls-4{stroke:url(#Gradiente_sem_nome_12-3);}</style><linearGradient id="Gradiente_sem_nome_12" x1="14.99" y1="37.6" x2="38.65" y2="162.74" gradientUnits="userSpaceOnUse"><stop offset="0" stop-color="#e8b89b"/><stop offset="0.13" stop-color="#e8b89b" stop-opacity="0.8"/><stop offset="0.3" stop-color="#e8b89b" stop-opacity="0.56"/><stop offset="0.46" stop-color="#e8b89b" stop-opacity="0.36"/><stop offset="0.62" stop-color="#e8b89b" stop-opacity="0.2"/><stop offset="0.77" stop-color="#e8b89b" stop-opacity="0.09"/><stop offset="0.9" stop-color="#e8b89b" stop-opacity="0.02"/><stop offset="1" stop-color="#e8b89b" stop-opacity="0"/></linearGradient><linearGradient id="Gradiente_sem_nome_12-2" x1="48.91" y1="31.19" x2="72.56" y2="156.33" xlink:href="#Gradiente_sem_nome_12"/><linearGradient id="Gradiente_sem_nome_12-3" x1="24.95" y1="35.72" x2="48.61" y2="160.86" xlink:href="#Gradiente_sem_nome_12"/></defs><title>bee</title><g id="Camada_2" data-name="Camada 2"><g id="Camada_1-2" data-name="Camada 1"><path class="cls-1" d="M57.45,20.43a3.75,3.75,0,0,0-.33-2.86,1.1,1.1,0,0,1,.44-1.5,1.09,1.09,0,0,1,1.49.43A5.86,5.86,0,0,1,59.56,21a1.1,1.1,0,0,1-2.11-.61Z"/><path class="cls-1" d="M62.82,33.7l-2.68-4.86a11.37,11.37,0,0,0,4.31-7.71l4.85,1.4A1.26,1.26,0,1,0,70,20.1l-5.56-1.61a11.34,11.34,0,0,0-4.37-7.64L61.72,5.1a1.26,1.26,0,1,0-2.43-.7L57.81,9.52a11.33,11.33,0,0,0-8.53-.33L46.6,4.34a8.41,8.41,0,0,0-14.72,8.13l2.69,4.85a11.33,11.33,0,0,0-3.51,13.31l-3.4,1.88a1.27,1.27,0,1,0,1.23,2.22l3.41-1.89A11.26,11.26,0,0,0,45.43,37l2.67,4.86h0A8.41,8.41,0,0,0,62.82,33.7ZM36.72,16,34.1,11.24A5.87,5.87,0,0,1,44.38,5.57L47,10.28ZM58.91,26.58,50.52,11.43C59.65,8.59,66.16,20.36,58.91,26.58ZM33,24.33,38.63,34.6A8.78,8.78,0,0,1,33,24.33Zm8.85,10.78L34.22,21.37a8.79,8.79,0,0,1,1.59-1.81L40,27.13l4.18,7.59A8.52,8.52,0,0,1,41.81,35.11Zm4.69-1.45-4.27-7.75L38,18.18l2-1.09,8.55,15.47Zm4.19-2.32L42.14,15.86l1.89-1L52.58,30.3Zm4.11-2.27L46.25,13.59l2-1.09L56.78,28ZM50.32,40.6l-2.6-4.72L58,30.2l2.6,4.73A5.87,5.87,0,0,1,50.32,40.6Z"/><path class="cls-2" d="M17.29,39.1a31.65,31.65,0,0,0-3.39,2.12"/><path class="cls-3" d="M8.17,46.48A25,25,0,0,0,2,62.88c.26,15.21,10.55,26.3,22.25,26.57,7.54.17,14.27-4.89,26.08-9.33C56.09,78,78.83,69.4,97.56,80A39.24,39.24,0,0,1,114.31,98.8c5.45,13.29,2.08,27.39-3.13,35.76-9.86,15.85-33.86,23.3-59.17,16.22"/><path class="cls-4" d="M48.28,149.63c-1.25-.42-2.5-.87-3.76-1.37"/></g></g></svg>