<svg xmlns="http://www.w3.org/2000/svg" viewBox="0 0 125.3 121.15"><defs><style>.cls-1{fill:#e8b89b;}</style></defs><title>icon</title><g id="Camada_2" data-name="Camada 2"><g id="Camada_1-2" data-name="Camada 1"><path class="cls-1" d="M122.32,61.73,108.18,47.58a24.37,24.37,0,0,0-23.54-6.26c0-.62.08-1.25.08-1.87a21.92,21.92,0,0,0-6.43-15.56h0l0,0,0,0h0a21.91,21.91,0,0,0-9-5.45,30.22,30.22,0,0,1,2.6-5.87,29.84,29.84,0,0,1,8.13-9.11L77.38,0A34.28,34.28,0,0,0,65,17.5a21.76,21.76,0,0,0-4.75,0A34.1,34.1,0,0,0,47.91,0l-2.5,3.37a29.86,29.86,0,0,1,10.73,15,21.87,21.87,0,0,0-9,5.45h0l0,0,0,0h0a22,22,0,0,0-6.43,15.56c0,.62,0,1.25.08,1.87a24.24,24.24,0,0,0,5.6,12.93L47,55l0,0,0,0,6.68,6.69,6-5.95L52.92,49a13.62,13.62,0,0,1,0-19.19h0l0,0,0,0h0a13.62,13.62,0,0,1,19.22,0h0l0,0,0,0h0a13.63,13.63,0,0,1,0,19.18l-9.73,9.74L56.7,64.7l-9.62,9.63-1.55,1.54a15.92,15.92,0,0,1-22.47,0L11.89,64.7,23.06,53.53A15.84,15.84,0,0,1,34.3,48.89a16.34,16.34,0,0,1,4,.5,33.64,33.64,0,0,1-2.71-8.87c-.43,0-.86,0-1.28,0a24.22,24.22,0,0,0-17.18,7.1L3,61.73l-3,3,3,3L17.12,81.82A24.31,24.31,0,0,0,40.7,88.06c-.05.63-.08,1.26-.08,1.89a22,22,0,0,0,6.46,15.63l12.6,12.6,3,3,3-3,12.6-12.6A22.07,22.07,0,0,0,84.68,90c0-.63,0-1.26-.08-1.89A24.13,24.13,0,0,0,79,75.14v0l-.78-.78-6.66-6.66-5.94,6,6.65,6.65a13.72,13.72,0,0,1,0,19.37l-9.62,9.62L53,99.64a13.75,13.75,0,0,1,0-19.37L56.32,77l6.33-6.34,5.94-5.94L78.25,55l0,0,0,0,1.43-1.44a15.93,15.93,0,0,1,22.48,0L113.41,64.7,102.24,75.87a15.78,15.78,0,0,1-4.88,3.32V56.67H89.63V88.81h6.6c3.79.08,5.74-.35,12-7l14.14-14.15,3-3Z"/><polygon class="cls-1" points="38.83 73.93 47.2 66.1 47.2 65.11 47.2 62.66 40.17 62.66 31.5 54.54 29.15 57.05 35.15 62.66 19.45 62.66 19.45 66.09 28.84 66.09 23.14 71.42 25.49 73.92 33.86 66.09 42.19 66.09 36.48 71.43 38.83 73.93"/></g></g></svg>