<svg xmlns="http://www.w3.org/2000/svg" viewBox="0 0 54 54"><defs><style>.cls-1{fill:#fff;}</style></defs><title>instagram</title><g id="Camada_2" data-name="Camada 2"><g id="Camada_1-2" data-name="Camada 1"><path class="cls-1" d="M32.17,27A5.17,5.17,0,1,1,27,21.83,5.18,5.18,0,0,1,32.17,27Z"/><path class="cls-1" d="M39.09,17.86a5.11,5.11,0,0,0-3-2.95,8.6,8.6,0,0,0-2.87-.53c-1.64-.07-2.13-.09-6.27-.09s-4.63,0-6.27.09a8.6,8.6,0,0,0-2.87.53,5.11,5.11,0,0,0-2.95,2.95,8.61,8.61,0,0,0-.53,2.88c-.07,1.63-.09,2.12-.09,6.26s0,4.63.09,6.27a8.6,8.6,0,0,0,.53,2.87,5.11,5.11,0,0,0,2.95,3,8.6,8.6,0,0,0,2.87.53c1.64.07,2.13.09,6.27.09s4.63,0,6.26-.09a8.61,8.61,0,0,0,2.88-.53,5.16,5.16,0,0,0,3-3,8.6,8.6,0,0,0,.53-2.87c.07-1.64.09-2.13.09-6.27s0-4.63-.09-6.26A8.61,8.61,0,0,0,39.09,17.86ZM27,35a8,8,0,1,1,8-8A8,8,0,0,1,27,35Zm8.28-14.38a1.86,1.86,0,1,1,1.86-1.86A1.86,1.86,0,0,1,35.28,20.58Z"/><path class="cls-1" d="M27,0A27,27,0,1,0,54,27,27,27,0,0,0,27,0ZM42.41,33.39a11.39,11.39,0,0,1-.72,3.77,8,8,0,0,1-4.53,4.53,11.66,11.66,0,0,1-3.77.72c-1.65.08-2.18.09-6.39.09s-4.74,0-6.39-.09a11.66,11.66,0,0,1-3.77-.72,8,8,0,0,1-4.53-4.53,11.66,11.66,0,0,1-.72-3.77c-.08-1.65-.09-2.18-.09-6.39s0-4.74.09-6.39a11.39,11.39,0,0,1,.72-3.77,8,8,0,0,1,4.53-4.53,11.66,11.66,0,0,1,3.77-.72c1.65-.08,2.18-.09,6.39-.09s4.74,0,6.39.09a11.66,11.66,0,0,1,3.77.72,8,8,0,0,1,4.53,4.53,11.39,11.39,0,0,1,.72,3.77c.08,1.65.09,2.18.09,6.39S42.49,31.74,42.41,33.39Z"/></g></g></svg>