<svg xmlns="http://www.w3.org/2000/svg" viewBox="0 0 362.43 121.15"><defs><style>.cls-1{fill:#fff;}.cls-2{fill:#c5b097;}</style></defs><title>logo-alt</title><g id="Camada_2" data-name="Camada 2"><g id="Camada_1-2" data-name="Camada 1"><path class="cls-1" d="M122.32,61.73,108.18,47.58a24.37,24.37,0,0,0-23.54-6.26c0-.62.08-1.25.08-1.87a21.92,21.92,0,0,0-6.43-15.56h0l0,0,0,0h0a21.91,21.91,0,0,0-9-5.45,30.22,30.22,0,0,1,2.6-5.87,29.84,29.84,0,0,1,8.13-9.11L77.38,0A34.28,34.28,0,0,0,65,17.5a21.76,21.76,0,0,0-4.75,0A34.1,34.1,0,0,0,47.91,0l-2.5,3.37a29.86,29.86,0,0,1,10.73,15,21.87,21.87,0,0,0-9,5.45h0l0,0,0,0h0a22,22,0,0,0-6.43,15.56c0,.62,0,1.25.08,1.87a24.24,24.24,0,0,0,5.6,12.93L47,55l0,0,0,0,6.68,6.69,6-5.95L52.92,49a13.62,13.62,0,0,1,0-19.19h0l0,0,0,0h0a13.62,13.62,0,0,1,19.22,0h0l0,0,0,0h0a13.63,13.63,0,0,1,0,19.18l-9.73,9.74L56.7,64.7l-9.62,9.63-1.55,1.54a15.92,15.92,0,0,1-22.47,0L11.89,64.7,23.06,53.53A15.84,15.84,0,0,1,34.3,48.89a16.34,16.34,0,0,1,4,.5,33.64,33.64,0,0,1-2.71-8.87c-.43,0-.86,0-1.28,0a24.22,24.22,0,0,0-17.18,7.1L3,61.73l-3,3,3,3L17.12,81.82A24.31,24.31,0,0,0,40.7,88.06c-.05.63-.08,1.26-.08,1.89a22,22,0,0,0,6.46,15.63l12.6,12.6,3,3,3-3,12.6-12.6A22.07,22.07,0,0,0,84.68,90c0-.63,0-1.26-.08-1.89A24.13,24.13,0,0,0,79,75.14v0l-.78-.78-6.66-6.66-5.94,6,6.65,6.65a13.72,13.72,0,0,1,0,19.37l-9.62,9.62L53,99.64a13.75,13.75,0,0,1,0-19.37L56.32,77l6.33-6.34,5.94-5.94L78.25,55l0,0,0,0,1.43-1.44a15.93,15.93,0,0,1,22.48,0L113.41,64.7,102.24,75.87a15.78,15.78,0,0,1-4.88,3.32V56.67H89.63V88.81h6.6c3.79.08,5.74-.35,12-7l14.14-14.15,3-3Z"/><polygon class="cls-1" points="38.83 73.93 47.2 66.1 47.2 65.11 47.2 62.66 40.17 62.66 31.5 54.54 29.15 57.05 35.15 62.66 19.45 62.66 19.45 66.09 28.84 66.09 23.14 71.42 25.49 73.92 33.86 66.09 42.19 66.09 36.48 71.43 38.83 73.93"/><path class="cls-2" d="M162.42,40.46v6.43H151.83V80.18h-8V46.89H133.28V40.46Z"/><path class="cls-2" d="M180.2,49.62a11.12,11.12,0,0,1,5.66-1.42v8.36h-2.11a8.05,8.05,0,0,0-5.66,1.77q-1.91,1.76-1.9,6.14V80.18h-8V48.65h8v4.9A11.18,11.18,0,0,1,180.2,49.62Z"/><path class="cls-2" d="M220.28,66.81h-23a7.8,7.8,0,0,0,2.39,5.34,7.37,7.37,0,0,0,5.18,1.94,6.49,6.49,0,0,0,6.31-3.81h8.6a14.36,14.36,0,0,1-5.24,7.48,15.31,15.31,0,0,1-9.5,2.93,16.42,16.42,0,0,1-8.17-2A14.16,14.16,0,0,1,191.18,73a17.46,17.46,0,0,1-2-8.53,17.84,17.84,0,0,1,2-8.6,14,14,0,0,1,5.58-5.69,16.79,16.79,0,0,1,8.25-2A16.58,16.58,0,0,1,213,50.08a13.63,13.63,0,0,1,5.52,5.49,16.59,16.59,0,0,1,2,8.16A18.06,18.06,0,0,1,220.28,66.81Zm-8-5.35A6.35,6.35,0,0,0,210,56.53a7.86,7.86,0,0,0-5.29-1.85,7.23,7.23,0,0,0-5,1.8,7.82,7.82,0,0,0-2.47,5Z"/><path class="cls-2" d="M255.39,66.81h-23a7.8,7.8,0,0,0,2.39,5.34,7.37,7.37,0,0,0,5.18,1.94,6.5,6.5,0,0,0,6.31-3.81h8.59a14.34,14.34,0,0,1-5.23,7.48,15.31,15.31,0,0,1-9.5,2.93,16.42,16.42,0,0,1-8.17-2A14.16,14.16,0,0,1,226.29,73a17.46,17.46,0,0,1-2-8.53,17.84,17.84,0,0,1,2-8.6,14,14,0,0,1,5.58-5.69,16.79,16.79,0,0,1,8.25-2,16.58,16.58,0,0,1,8,1.94,13.63,13.63,0,0,1,5.52,5.49,16.59,16.59,0,0,1,2,8.16A19.14,19.14,0,0,1,255.39,66.81Zm-8-5.35a6.35,6.35,0,0,0-2.22-4.93,7.88,7.88,0,0,0-5.29-1.85,7.23,7.23,0,0,0-5,1.8,7.88,7.88,0,0,0-2.48,5Z"/><path class="cls-2" d="M289.48,63.16a9.82,9.82,0,0,1,2.16,6.26A10,10,0,0,1,290.07,75a10.41,10.41,0,0,1-4.52,3.78,16.55,16.55,0,0,1-7,1.37H261.42V40.46h16.39a17,17,0,0,1,7,1.31,9.82,9.82,0,0,1,4.44,3.64,9.51,9.51,0,0,1,1.51,5.29,9.08,9.08,0,0,1-1.85,5.81,9.94,9.94,0,0,1-4.92,3.3A8.88,8.88,0,0,1,289.48,63.16Zm-20.09-6.31h7.28a6.72,6.72,0,0,0,4.39-1.28,4.53,4.53,0,0,0,1.53-3.67,4.59,4.59,0,0,0-1.53-3.7,6.61,6.61,0,0,0-4.39-1.31h-7.28Zm12.55,15.47a4.76,4.76,0,0,0,1.62-3.86,5,5,0,0,0-1.71-4A6.92,6.92,0,0,0,277.24,63h-7.85v10.7h8A6.77,6.77,0,0,0,281.94,72.32Z"/><path class="cls-2" d="M327.09,66.81H304a7.85,7.85,0,0,0,2.39,5.34,7.39,7.39,0,0,0,5.18,1.94,6.51,6.51,0,0,0,6.32-3.81h8.59a14.4,14.4,0,0,1-5.23,7.48,15.32,15.32,0,0,1-9.51,2.93,16.4,16.4,0,0,1-8.16-2A14.25,14.25,0,0,1,298,73a17.57,17.57,0,0,1-2-8.53,17.85,17.85,0,0,1,2-8.6,13.88,13.88,0,0,1,5.57-5.69,16.79,16.79,0,0,1,8.25-2,16.56,16.56,0,0,1,8.05,1.94,13.57,13.57,0,0,1,5.52,5.49,16.59,16.59,0,0,1,2,8.16A19.14,19.14,0,0,1,327.09,66.81Zm-8-5.35a6.35,6.35,0,0,0-2.22-4.93,7.9,7.9,0,0,0-5.29-1.85,7.19,7.19,0,0,0-5,1.8,7.83,7.83,0,0,0-2.48,5Z"/><path class="cls-2" d="M362.2,66.81H339.15a7.85,7.85,0,0,0,2.39,5.34,7.39,7.39,0,0,0,5.18,1.94A6.52,6.52,0,0,0,353,70.28h8.59a14.36,14.36,0,0,1-5.24,7.48,15.29,15.29,0,0,1-9.5,2.93,16.38,16.38,0,0,1-8.16-2A14.25,14.25,0,0,1,333.09,73a17.57,17.57,0,0,1-2-8.53,18,18,0,0,1,2-8.6,14,14,0,0,1,5.58-5.69,16.79,16.79,0,0,1,8.25-2,16.56,16.56,0,0,1,8.05,1.94,13.63,13.63,0,0,1,5.52,5.49,16.59,16.59,0,0,1,2,8.16A19.14,19.14,0,0,1,362.2,66.81Zm-8-5.35A6.31,6.31,0,0,0,352,56.53a7.91,7.91,0,0,0-5.3-1.85,7.23,7.23,0,0,0-5,1.8,7.87,7.87,0,0,0-2.47,5Z"/></g></g></svg>