<svg id="Camada_1" data-name="Camada 1" xmlns="http://www.w3.org/2000/svg" viewBox="0 0 1327 1167"><defs><style>.cls-1{opacity:0.25;}.cls-2{fill:#e8b89b;}</style></defs><title>logo-bg</title><g class="cls-1"><path class="cls-2" d="M1278.48,584.66l-156-156a268.75,268.75,0,0,0-259.54-69q.87-10.33.88-20.69A241.79,241.79,0,0,0,793,167.51h-.18l-.5-.51-.42-.41.09-.09a240.82,240.82,0,0,0-99.77-60.11A330.45,330.45,0,0,1,810.51-58.83L783-95.94A376.31,376.31,0,0,0,646.7,97a244.12,244.12,0,0,0-52.4,0A376.31,376.31,0,0,0,458-95.94L430.49-58.83A330.36,330.36,0,0,1,548.78,106.38,241,241,0,0,0,449,166.5l.09.09-.42.41-.5.51H448A241.82,241.82,0,0,0,377.13,339q0,10.35.88,20.68a266.44,266.44,0,0,0,61.71,142.51l7.94,7.94.34.35.51.51,73.69,73.68,65.53-65.54L513.22,444.6A150.19,150.19,0,0,1,513.54,233l-.09-.09.42-.41.5-.51h.19a150.21,150.21,0,0,1,211.88,0h.18l.51.51.42.42-.09.08a150.23,150.23,0,0,1,.34,211.55L620.5,551.89,555,617.42,448.83,723.56l-17.05,17.05a175.64,175.64,0,0,1-247.78,0L60.82,617.42,184,494.24A174.71,174.71,0,0,1,307.89,443.1,177.05,177.05,0,0,1,352,448.67a371.63,371.63,0,0,1-29.88-97.88q-7.09-.37-14.19-.37a267,267,0,0,0-189.42,78.29l-155.95,156-32.77,32.76,32.77,32.77,156,156a267.16,267.16,0,0,0,189.42,78.29A270.34,270.34,0,0,0,378.5,875q-.88,10.4-.88,20.82a242.9,242.9,0,0,0,71.21,172.3l138.9,138.9,32.77,32.77,32.77-32.76,138.9-138.91a242.94,242.94,0,0,0,71.22-172.3q0-10.41-.89-20.82a266.38,266.38,0,0,0-61.72-142.51l0-.33-8.64-8.64L718.8,650.19l-65.53,65.54,73.37,73.37a151.37,151.37,0,0,1,0,213.53L620.5,1108.76,514.36,1002.62a151.39,151.39,0,0,1,0-213.53l36.33-36.31L620.5,683,686,617.42,792.49,511l.5-.51.37-.37,15.86-15.86a175.62,175.62,0,0,1,247.77,0l123.19,123.18L1057,740.61a173.73,173.73,0,0,1-53.78,36.58V528.86H918v354.4h72.71c41.8.92,63.34-3.85,131.78-77.12l156-155.95,32.77-32.77Z"/><polygon class="cls-2" points="357.84 719.24 450.18 632.86 450.18 621.96 450.18 594.91 372.71 594.91 277.01 505.39 251.16 533.03 317.3 594.91 144.23 594.91 144.23 632.76 247.7 632.76 184.92 691.49 210.78 719.13 303.1 632.76 394.88 632.76 331.98 691.6 357.84 719.24"/></g></svg>