<svg xmlns="http://www.w3.org/2000/svg" viewBox="0 0 163.27 163.29"><defs><style>.cls-1{fill:#e8b89b;}</style></defs><title>bag</title><g id="Camada_2" data-name="Camada 2"><g id="Camada_1-2" data-name="Camada 1"><path class="cls-1" d="M163.24,160.16,144.19,35a2.71,2.71,0,0,0-2.69-2.31H116.87a35.34,35.34,0,0,0-70.48,0H21.77A2.71,2.71,0,0,0,19.08,35L0,160.16a2.72,2.72,0,0,0,2.28,3.1,2.83,2.83,0,0,0,.41,0H160.55a2.72,2.72,0,0,0,2.72-2.72A2.83,2.83,0,0,0,163.24,160.16ZM81.63,5.46a30,30,0,0,1,29.8,27.22H51.83A30,30,0,0,1,81.63,5.46ZM5.89,157.85,24.12,38.12h115L157.4,157.85Z"/><path class="cls-1" d="M119.73,46.28A2.72,2.72,0,0,0,117,43.56H29.93a2.72,2.72,0,0,0,0,5.44H117A2.72,2.72,0,0,0,119.73,46.28Z"/><path class="cls-1" d="M133.34,43.56h-5.45a2.72,2.72,0,0,0,0,5.44h5.45a2.72,2.72,0,0,0,0-5.44Z"/><path class="cls-1" d="M117,54.45a8.14,8.14,0,0,0-3.56,15.47,32.64,32.64,0,0,1-63.63,0,8.14,8.14,0,1,0-5.42.62,38.06,38.06,0,0,0,74.47,0A8.16,8.16,0,0,0,117,54.45ZM46.26,65.33A2.72,2.72,0,1,1,49,62.61,2.72,2.72,0,0,1,46.26,65.33Zm70.75,0a2.72,2.72,0,1,1,2.72-2.72A2.72,2.72,0,0,1,117,65.33Z"/></g></g></svg>