<svg xmlns="http://www.w3.org/2000/svg" viewBox="0 0 250 242.25"><defs><style>.cls-1{fill:#e8b89b;}.cls-2{fill:#c5b097;}</style></defs><title>logo-square-light_1</title><g id="Camada_2" data-name="Camada 2"><g id="Camada_1-2" data-name="Camada 1"><path class="cls-1" d="M216.24,94.35,194.62,72.73a37.2,37.2,0,0,0-36-9.57c.09-1,.13-1.91.13-2.87a33.52,33.52,0,0,0-9.83-23.77h0l-.07-.07-.06-.06h0A33.27,33.27,0,0,0,135,28.05a45.85,45.85,0,0,1,16.4-22.91L147.56,0a52.15,52.15,0,0,0-18.9,26.75,33,33,0,0,0-7.26,0A52.2,52.2,0,0,0,102.51,0L98.69,5.14a45.85,45.85,0,0,1,16.4,22.91,33.27,33.27,0,0,0-13.83,8.33h0l0,.06-.08.07h0a33.52,33.52,0,0,0-9.83,23.77c0,1,0,1.91.13,2.87A36.86,36.86,0,0,0,100,82.91l1.1,1.1.05,0,.07.07L111.4,94.35l9.09-9.09L110.16,74.93a20.82,20.82,0,0,1,0-29.33h0l.06-.06.07-.07h0a20.83,20.83,0,0,1,29.38,0h0l.07.07.06.06h0a20.82,20.82,0,0,1,0,29.33L125,89.8,116,98.89,101.23,113.6,98.87,116a24.35,24.35,0,0,1-34.35,0L47.45,98.89,64.52,81.81A24.25,24.25,0,0,1,81.7,74.72a24.77,24.77,0,0,1,6.11.77,51.1,51.1,0,0,1-4.15-13.56c-.65,0-1.31-.06-2-.06A37,37,0,0,0,55.44,72.73L33.82,94.35l-4.54,4.54,4.54,4.54,21.62,21.62a37.26,37.26,0,0,0,36,9.55q-.12,1.44-.12,2.88a33.69,33.69,0,0,0,9.87,23.89l19.26,19.25,4.54,4.55,4.54-4.55,19.26-19.25a33.69,33.69,0,0,0,9.87-23.89q0-1.44-.12-2.88A37,37,0,0,0,150,114.84v0l-1.19-1.2-10.17-10.17-9.09,9.08,10.17,10.17a21,21,0,0,1,0,29.6L125,167l-14.71-14.72a21,21,0,0,1,0-29.6l5-5L125,108l9.09-9.08,14.75-14.76.07-.07.05,0,2.2-2.2a24.35,24.35,0,0,1,34.35,0l17.07,17.08L185.54,116a24,24,0,0,1-7.46,5.07V86.61h-11.8v49.13h10.07c5.8.12,8.78-.54,18.27-10.69l21.62-21.62,4.54-4.54Z"/><polygon class="cls-1" points="88.62 113 101.42 101.03 101.42 99.52 101.42 95.77 90.68 95.77 77.42 83.36 73.83 87.19 83 95.77 59.01 95.77 59.01 101.01 73.35 101.01 64.65 109.15 68.23 112.98 81.03 101.01 93.75 101.01 85.04 109.17 88.62 113"/><path class="cls-2" d="M31.79,198.36v7H20.24v36.31H11.55V205.38H0v-7Z"/><path class="cls-2" d="M51.19,208.36a12.09,12.09,0,0,1,6.17-1.56v9.13H55.07c-2.74,0-4.79.64-6.18,1.92s-2.08,3.52-2.08,6.71v17.13H38.12V207.3h8.69v5.34A12.21,12.21,0,0,1,51.19,208.36Z"/><path class="cls-2" d="M94.92,227.1H69.78a8.53,8.53,0,0,0,2.61,5.84A8,8,0,0,0,78,235.05a7.1,7.1,0,0,0,6.89-4.16H94.3a15.72,15.72,0,0,1-5.71,8.17,16.69,16.69,0,0,1-10.37,3.19,17.94,17.94,0,0,1-8.91-2.2,15.5,15.5,0,0,1-6.14-6.24A19.1,19.1,0,0,1,61,224.5a19.48,19.48,0,0,1,2.18-9.38,15.1,15.1,0,0,1,6.08-6.21A19.56,19.56,0,0,1,87,208.85a15,15,0,0,1,6,6,18.13,18.13,0,0,1,2.14,8.91A20,20,0,0,1,94.92,227.1Zm-8.75-5.83a6.88,6.88,0,0,0-2.42-5.37,8.58,8.58,0,0,0-5.78-2,7.86,7.86,0,0,0-5.43,2,8.57,8.57,0,0,0-2.7,5.43Z"/><path class="cls-2" d="M133.23,227.1H108.08a8.57,8.57,0,0,0,2.61,5.84,8,8,0,0,0,5.65,2.11,7.08,7.08,0,0,0,6.89-4.16h9.38a15.74,15.74,0,0,1-5.72,8.17,16.66,16.66,0,0,1-10.36,3.19,17.92,17.92,0,0,1-8.91-2.2,15.52,15.52,0,0,1-6.15-6.24,19.09,19.09,0,0,1-2.2-9.31,19.48,19.48,0,0,1,2.17-9.38,15.22,15.22,0,0,1,6.08-6.21,18.34,18.34,0,0,1,9-2.17,18.15,18.15,0,0,1,8.78,2.11,14.9,14.9,0,0,1,6,6,18.13,18.13,0,0,1,2.14,8.91A21.16,21.16,0,0,1,133.23,227.1Zm-8.76-5.83a6.88,6.88,0,0,0-2.42-5.37,8.55,8.55,0,0,0-5.77-2,7.85,7.85,0,0,0-5.43,2,8.57,8.57,0,0,0-2.7,5.43Z"/><path class="cls-2" d="M170.41,223.13a10.72,10.72,0,0,1,2.36,6.83,11,11,0,0,1-1.71,6.12,11.27,11.27,0,0,1-4.93,4.12,18,18,0,0,1-7.64,1.49H139.81V198.36h17.88a18.57,18.57,0,0,1,7.6,1.43,10.82,10.82,0,0,1,4.84,4,10.39,10.39,0,0,1,1.65,5.78,9.86,9.86,0,0,1-2,6.33,10.71,10.71,0,0,1-5.37,3.6A9.69,9.69,0,0,1,170.41,223.13Zm-21.91-6.89h7.94a7.27,7.27,0,0,0,4.78-1.4,4.9,4.9,0,0,0,1.68-4,5,5,0,0,0-1.68-4,7.16,7.16,0,0,0-4.78-1.42H148.5Zm13.69,16.89a5.22,5.22,0,0,0,1.77-4.22,5.41,5.41,0,0,0-1.87-4.38,7.47,7.47,0,0,0-5-1.58H148.5v11.67h8.75A7.47,7.47,0,0,0,162.19,233.13Z"/><path class="cls-2" d="M211.45,227.1H186.3a8.57,8.57,0,0,0,2.61,5.84,8,8,0,0,0,5.65,2.11,7.08,7.08,0,0,0,6.89-4.16h9.38a15.78,15.78,0,0,1-5.71,8.17,16.69,16.69,0,0,1-10.37,3.19,17.94,17.94,0,0,1-8.91-2.2,15.52,15.52,0,0,1-6.15-6.24,19.09,19.09,0,0,1-2.2-9.31,19.48,19.48,0,0,1,2.17-9.38,15.18,15.18,0,0,1,6.09-6.21,19.54,19.54,0,0,1,17.78-.06,14.84,14.84,0,0,1,6,6,18.13,18.13,0,0,1,2.15,8.91A21.09,21.09,0,0,1,211.45,227.1Zm-8.76-5.83a6.85,6.85,0,0,0-2.42-5.37,8.53,8.53,0,0,0-5.77-2,7.86,7.86,0,0,0-5.43,2,8.57,8.57,0,0,0-2.7,5.43Z"/><path class="cls-2" d="M249.75,227.1H224.61a8.53,8.53,0,0,0,2.61,5.84,8,8,0,0,0,5.65,2.11,7.1,7.1,0,0,0,6.89-4.16h9.37a15.72,15.72,0,0,1-5.71,8.17,16.69,16.69,0,0,1-10.37,3.19,17.94,17.94,0,0,1-8.91-2.2,15.5,15.5,0,0,1-6.14-6.24,19.1,19.1,0,0,1-2.21-9.31,19.48,19.48,0,0,1,2.18-9.38,15.1,15.1,0,0,1,6.08-6.21,19.56,19.56,0,0,1,17.79-.06,15,15,0,0,1,6,6,18.13,18.13,0,0,1,2.14,8.91A20,20,0,0,1,249.75,227.1ZM241,221.27a6.88,6.88,0,0,0-2.42-5.37,8.58,8.58,0,0,0-5.78-2,7.86,7.86,0,0,0-5.43,2,8.57,8.57,0,0,0-2.7,5.43Z"/></g></g></svg>