<svg xmlns="http://www.w3.org/2000/svg" viewBox="0 0 161.57 161.57"><defs><style>.cls-1{fill:#e8b89b;}</style></defs><title>shop</title><g id="Camada_2" data-name="Camada 2"><g id="Camada_1-2" data-name="Camada 1"><path class="cls-1" d="M158.88,145.41V61.93h0a2.64,2.64,0,0,0-.28-1.2L142.44,28.42A2.69,2.69,0,0,0,140,26.93H95.29L99.5,14.32a2.7,2.7,0,0,0-2.56-3.55H93.22L88.58,1.49h0a2.69,2.69,0,1,0-4.82,2.4h0l3.44,6.88H74.37L77.81,3.9h0A2.69,2.69,0,0,0,73,1.49h0l-4.64,9.28H64.63a2.69,2.69,0,0,0-2.69,2.69,2.8,2.8,0,0,0,.13.86l4.21,12.61H21.54a2.69,2.69,0,0,0-2.41,1.49L3,60.73a2.64,2.64,0,0,0-.28,1.2h0v83.48A2.7,2.7,0,0,0,0,148.11v10.77a2.7,2.7,0,0,0,2.69,2.69H158.88a2.7,2.7,0,0,0,2.69-2.69V148.11A2.7,2.7,0,0,0,158.88,145.41ZM138.36,32.31l13.47,26.93H136.44L125.22,32.31Zm15.13,32.32v2.69a8.08,8.08,0,0,1-16.16,0V64.63ZM119.38,32.31,130.6,59.24H115l-9-26.93ZM132,64.63v2.69a8.08,8.08,0,1,1-16.16,0V64.63ZM100.39,32.31l9,26.93H94L91.79,32.31Zm10,32.32v2.69a8.08,8.08,0,0,1-16.16,0V64.63ZM93.21,16.16,89.62,26.93H72L68.36,16.16ZM88.86,64.63v2.69a8.08,8.08,0,1,1-16.15,0V64.63ZM72.94,59.24l2.25-26.93h11.2l2.24,26.93ZM69.78,32.31,67.54,59.24H52.21l9-26.93ZM67.32,64.63v2.69a8.08,8.08,0,0,1-16.16,0V64.63ZM55.51,32.31l-9,26.93H31L42.19,32.31ZM45.78,64.63v2.69a8.08,8.08,0,1,1-16.16,0V64.63ZM23.21,32.31H36.35L25.13,59.24H9.74ZM8.08,64.63H24.24v2.69a8.08,8.08,0,1,1-16.16,0Zm0,13.45A13.43,13.43,0,0,0,26.9,75.42l0,0a13.45,13.45,0,0,0,18.82,2.72,13.23,13.23,0,0,0,2.72-2.72,13.43,13.43,0,0,0,21.54,0,13.45,13.45,0,0,0,21.55,0,13.45,13.45,0,0,0,21.54,0,13.43,13.43,0,0,0,21.54,0,13.45,13.45,0,0,0,18.82,2.72l0,0v67.33H107.71V88.86A2.69,2.69,0,0,0,105,86.17H56.55a2.69,2.69,0,0,0-2.69,2.69v56.55H8.08Zm94.25,13.48v53.85H83.48V91.56Zm-24.24,0v53.85H59.24V91.56Zm78.09,64.62H5.39V150.8H156.18Z"/><path class="cls-1" d="M45.78,86.17H16.16a2.7,2.7,0,0,0-2.7,2.69v48.47a2.7,2.7,0,0,0,2.7,2.7H45.78a2.69,2.69,0,0,0,2.69-2.7V88.86A2.69,2.69,0,0,0,45.78,86.17Zm-2.69,48.47H18.85v-5.38H43.09Zm0-10.77H18.85V91.56H43.09Z"/><path class="cls-1" d="M115.79,140h29.62a2.7,2.7,0,0,0,2.7-2.7V88.86a2.7,2.7,0,0,0-2.7-2.69H115.79a2.69,2.69,0,0,0-2.69,2.69v48.47A2.69,2.69,0,0,0,115.79,140Zm2.69-48.47h24.24v32.31H118.48Zm0,37.7h24.24v5.38H118.48Z"/></g></g></svg>